<svg width="926" height="182" viewBox="0 0 926 182" fill="none" xmlns="http://www.w3.org/2000/svg">
<path d="M228.15 94.4246C232.51 97.1546 235.92 100.625 238.37 104.845C240.82 109.065 241.69 113.585 240.96 118.405C240.32 122.675 238.55 126.305 235.65 129.305C232.83 132.215 228.99 134.325 224.14 135.645C219.28 136.965 214.6 137.555 210.11 137.415C205.61 137.275 201.14 136.755 196.69 135.845L195.46 135.575C192.64 135.025 190.94 133.145 190.35 129.915C189.76 126.695 190.37 123.715 192.19 120.995C194.01 118.265 196.37 117.175 199.28 117.725L200.37 117.995C211.54 120.355 218.72 120.035 221.9 117.045C223.81 115.135 223.35 113.095 220.54 110.915C217.9 108.825 214 107.505 208.82 106.965C207 106.785 205.05 106.875 202.96 107.235C200.87 107.595 199.19 107.895 197.92 108.125C196.65 108.355 195.38 108.355 194.11 108.125C192.84 107.895 191.77 107.085 190.91 105.675C190.05 104.265 189.3 102.155 188.66 99.3346V130.675C188.66 132.855 187.71 134.585 185.8 135.855C183.89 137.125 181.8 137.765 179.53 137.765C177.26 137.765 175.17 137.135 173.26 135.855C171.35 134.585 170.4 132.855 170.4 130.675V57.5046C168.95 57.6846 167.54 57.2546 166.18 56.2146C164.82 55.1746 163.8 53.8346 163.11 52.1946C162.43 50.5646 162.04 48.8546 161.95 47.0846C161.86 45.3146 162.47 43.6746 163.79 42.1746C165.11 40.6746 167.04 39.6546 169.58 39.1046C174.85 38.1046 180.07 37.4046 185.25 36.9946C190.43 36.5846 195.83 36.5446 201.47 36.8546C207.1 37.1746 212.51 38.2446 217.69 40.0546C222.87 41.8746 227.32 44.4146 231.04 47.6846C236.31 52.1346 239.6 57.2746 240.92 63.0846C242.24 68.8946 241.71 74.5346 239.35 79.9846C236.99 85.4346 233.26 90.2546 228.18 94.4246H228.15ZM198.58 89.1146C206.03 87.0246 211.93 84.3946 216.29 81.2146C220.65 78.0346 222.94 74.8346 223.17 71.6046C223.4 68.3846 222.4 65.4046 220.17 62.6846C217.94 59.9546 213.99 57.8446 208.32 56.3446C202.64 54.8446 196.08 54.3246 188.63 54.7746V94.6946C188.99 93.6046 189.61 92.7146 190.47 92.0346C191.33 91.3546 192.04 90.9046 192.58 90.6746C193.12 90.4446 194.17 90.1546 195.71 89.7846C197.25 89.4246 198.21 89.1946 198.57 89.1046L198.58 89.1146Z" fill="#040A56"/>
<path d="M266.84 130.665C266.84 132.395 266.2 133.865 264.93 135.095C263.66 136.325 262.14 137.075 260.37 137.345C258.6 137.615 256.83 137.615 255.06 137.345C253.29 137.075 251.77 136.325 250.5 135.095C249.23 133.865 248.59 132.395 248.59 130.665V77.9347C248.59 75.7547 249.52 74.0247 251.38 72.7547C253.24 71.4847 255.31 70.8447 257.58 70.8447C259.85 70.8447 261.94 71.4547 263.85 72.6847C265.76 73.9147 266.76 75.6147 266.85 77.7947C272.12 74.4347 278.43 72.1647 285.79 70.9847C288.79 70.5347 291.08 71.7147 292.67 74.5247C294.26 77.3447 294.71 80.3347 294.03 83.5147C293.35 86.6947 291.6 88.5547 288.78 89.1047C274.15 92.1047 266.84 98.5547 266.84 108.455V130.665Z" fill="#040A56"/>
<path d="M308.54 48.6348C310.9 48.6348 312.9 49.2448 314.54 50.4748C316.18 51.7048 317.17 53.2248 317.54 55.0348C317.9 56.8548 317.9 58.6448 317.54 60.4148C317.18 62.1848 316.18 63.6848 314.54 64.9148C312.9 66.1448 310.91 66.7548 308.54 66.7548C305.63 66.7548 303.34 65.8248 301.66 63.9648C299.98 62.1048 299.14 60.0148 299.14 57.6948C299.14 55.3748 299.98 53.2848 301.66 51.4248C303.34 49.5648 305.63 48.6348 308.54 48.6348ZM317.67 130.665C317.67 132.395 317.06 133.865 315.83 135.095C314.6 136.325 313.08 137.075 311.27 137.345C309.45 137.615 307.66 137.615 305.89 137.345C304.12 137.075 302.6 136.325 301.33 135.095C300.06 133.865 299.42 132.395 299.42 130.665V77.9348C299.42 75.6648 300.37 73.9148 302.28 72.6848C304.19 71.4548 306.3 70.8448 308.62 70.8448C310.94 70.8448 313.03 71.4548 314.89 72.6848C316.75 73.9148 317.68 75.6648 317.68 77.9348V130.665H317.67Z" fill="#040A56"/>
<path d="M370.81 74.6649C371.81 72.8449 373.74 71.6448 376.6 71.0548C379.46 70.4648 382.14 70.7848 384.64 72.0048C387.14 73.2348 388.39 75.2048 388.39 77.9348V121.675C388.39 131.305 386.44 139.475 382.53 146.205C378.44 153.295 372.74 158.015 365.43 160.375C358.12 162.735 350.83 161.965 343.56 158.055C341.47 156.785 340.02 155.195 339.2 153.285C338.38 151.375 338.25 149.585 338.79 147.905C339.33 146.225 340.24 144.675 341.52 143.275C342.79 141.865 344.43 141.075 346.43 140.895C348.43 140.715 350.52 141.165 352.7 142.255C355.51 143.615 358.2 143.775 360.74 142.735C363.28 141.695 365.33 139.855 366.87 137.215C367.78 135.675 368.46 133.945 368.91 132.035C364.82 134.755 360.44 136.465 355.76 137.145C351.08 137.825 346.49 137.325 342 135.645C337.5 133.965 333.66 131.125 330.49 127.125C325.13 120.035 322.95 112.095 323.95 103.275C324.95 94.4648 328.54 86.9248 334.71 80.6548C339.7 75.7448 345.45 72.6848 351.95 71.4548C358.44 70.2248 364.74 71.2948 370.82 74.6548L370.81 74.6649ZM361.41 114.725C364.22 111.915 366.02 108.365 366.79 104.095C367.56 99.8249 366.72 96.0148 364.27 92.6448C362.82 90.8248 361.04 89.7348 358.96 89.3748C356.87 89.0148 354.85 89.2348 352.9 90.0548C350.95 90.8748 349.15 92.0549 347.52 93.5949C344.7 96.5049 342.91 100.065 342.14 104.295C341.37 108.515 342.21 112.355 344.66 115.805C346.11 117.535 347.88 118.575 349.97 118.935C352.06 119.295 354.08 119.095 356.03 118.325C357.98 117.555 359.78 116.345 361.41 114.715V114.725Z" fill="#040A56"/>
<path d="M397.38 51.6349C397.38 49.4549 398.33 47.7249 400.24 46.4549C402.15 45.1849 404.24 44.5449 406.51 44.5449C408.78 44.5449 410.87 45.1849 412.78 46.4549C414.69 47.7249 415.64 49.4549 415.64 51.6349V76.4349C420.09 73.5249 424.63 71.6849 429.27 70.9149C433.9 70.1449 438.15 70.465 442.01 71.865C445.87 73.275 449.32 75.4349 452.37 78.3349C455.41 81.2449 457.77 84.9449 459.46 89.4449C461.14 93.9449 461.98 98.8749 461.98 104.225V130.655C461.98 132.835 461.05 134.565 459.19 135.835C457.33 137.105 455.24 137.745 452.92 137.745C450.6 137.745 448.51 137.115 446.65 135.835C444.79 134.565 443.86 132.835 443.86 130.655V104.225C443.86 95.5049 441.18 90.505 435.82 89.235C431.55 88.145 427.19 89.5949 422.74 93.5949C418.02 97.8649 415.65 102.995 415.65 108.995V130.665C415.65 132.845 414.7 134.575 412.79 135.845C410.88 137.115 408.79 137.755 406.52 137.755C404.25 137.755 402.16 137.125 400.25 135.845C398.34 134.575 397.39 132.845 397.39 130.665V51.6349H397.38Z" fill="#040A56"/>
<path d="M476.55 89.3849H471.92C469.65 89.3849 467.9 88.4349 466.67 86.5249C465.44 84.6149 464.83 82.5249 464.83 80.2549C464.83 77.9849 465.44 75.895 466.67 73.985C467.9 72.075 469.64 71.1249 471.92 71.1249H476.55V51.6349C476.55 49.4549 477.5 47.7249 479.41 46.4549C481.32 45.1849 483.41 44.5449 485.68 44.5449C487.95 44.5449 490.04 45.1849 491.95 46.4549C493.86 47.7249 494.81 49.4549 494.81 51.6349V71.1249H503.53C505.71 71.1249 507.44 72.075 508.71 73.985C509.98 75.895 510.62 77.9849 510.62 80.2549C510.62 82.5249 509.98 84.6149 508.71 86.5249C507.44 88.4349 505.71 89.3849 503.53 89.3849H494.81V122.225C494.81 118.135 496.26 115.185 499.17 113.365C502.08 111.545 505.01 111.325 507.96 112.685C510.91 114.045 512.39 116.545 512.39 120.175C512.39 123.265 511.73 126.035 510.41 128.485C509.09 130.935 507.37 132.805 505.23 134.075C503.09 135.345 500.75 136.305 498.21 136.935C495.67 137.565 493.12 137.615 490.58 137.075C488.04 136.535 485.72 135.625 483.63 134.355C481.54 133.085 479.84 131.225 478.52 128.765C477.2 126.315 476.54 123.495 476.54 120.315V89.3849H476.55Z" fill="#040A56"/>
<path d="M533.24 112.275C536.6 115.725 540.78 117.975 545.78 119.015C550.78 120.065 555.59 119.945 560.22 118.675C561.76 118.225 563.56 117.565 565.6 116.695C567.64 115.835 569.55 114.585 571.32 112.945C573.09 111.315 573.66 109.725 573.02 108.175C571.2 103.905 563.98 100.135 551.35 96.8648C532.73 92.1448 521.37 84.7348 517.28 74.6548C515.55 70.0248 515.17 65.7248 516.12 61.7748C517.07 57.8248 519.09 54.3048 522.18 51.2148C525.27 48.1248 528.76 45.5848 532.67 43.5848C536.57 41.5848 540.66 40.1348 544.93 39.2248C552.65 37.6848 560.26 37.9048 567.75 39.9048C575.25 41.9048 581.63 45.6748 586.9 51.2148C588.62 52.9448 589.62 54.8248 589.9 56.8748C590.18 58.9248 589.79 60.6948 588.74 62.1848C587.7 63.6848 586.4 64.9347 584.86 65.9347C583.31 66.9347 581.52 67.2748 579.48 66.9548C577.44 66.6348 575.6 65.6148 573.96 63.8848C570.51 60.3448 566.31 58.0448 561.36 57.0048C556.41 55.9648 551.62 56.1148 546.98 57.4848C545.43 57.8448 543.64 58.4848 541.6 59.3948C539.56 60.3048 537.65 61.5748 535.88 63.2148C534.11 64.8548 533.54 66.3948 534.18 67.8448C535.9 72.2048 543.13 75.9748 555.85 79.1548C574.47 83.9748 585.83 91.3748 589.92 101.365C591.64 106.085 592.03 110.405 591.08 114.315C590.13 118.225 588.1 121.715 585.02 124.805C581.94 127.895 578.41 130.455 574.46 132.505C570.51 134.545 566.44 135.975 562.26 136.795C554.54 138.435 546.93 138.225 539.44 136.185C531.94 134.145 525.52 130.395 520.16 124.945C518.53 123.225 517.57 121.315 517.3 119.225C517.03 117.135 517.39 115.345 518.39 113.845C519.39 112.345 520.66 111.125 522.21 110.165C523.75 109.215 525.55 108.895 527.59 109.215C529.63 109.535 531.52 110.555 533.25 112.285L533.24 112.275Z" fill="#040A56"/>
<path d="M655.73 81.2045C661.09 88.2945 663.27 96.2645 662.27 105.114C661.27 113.974 657.64 121.494 651.37 127.664C646.55 132.484 640.97 135.544 634.61 136.864C628.25 138.184 622.03 137.254 615.94 134.074V156.964C615.94 159.144 614.99 160.874 613.08 162.144C611.17 163.414 609.08 164.054 606.81 164.054C604.54 164.054 602.45 163.414 600.54 162.144C598.63 160.874 597.68 159.144 597.68 156.964V77.9344C597.68 75.7544 598.59 74.0244 600.4 72.7544C602.22 71.4844 604.24 70.8245 606.46 70.7745C608.69 70.7345 610.77 71.2945 612.73 72.4745C614.68 73.6545 615.75 75.2444 615.93 77.2444C620.02 74.2444 624.49 72.2944 629.35 71.3844C634.21 70.4744 638.98 70.8645 643.66 72.5445C648.34 74.2245 652.36 77.1044 655.72 81.1944L655.73 81.2045ZM638.56 114.724C641.47 111.914 643.28 108.364 644.01 104.094C644.74 99.8245 643.92 96.0145 641.56 92.6445C640.11 90.8245 638.33 89.7344 636.25 89.3744C634.16 89.0144 632.12 89.2344 630.12 90.0544C628.12 90.8744 626.35 92.0545 624.81 93.5945C621.9 96.5045 620.09 100.064 619.36 104.294C618.63 108.514 619.45 112.354 621.81 115.804C623.26 117.534 625.03 118.574 627.12 118.934C629.21 119.294 631.25 119.094 633.25 118.324C635.25 117.554 637.02 116.344 638.56 114.714V114.724Z" fill="#040A56"/>
<path d="M668.54 51.6349C668.54 49.4549 669.49 47.7249 671.4 46.4549C673.31 45.1849 675.4 44.5449 677.67 44.5449C679.94 44.5449 682.03 45.1849 683.94 46.4549C685.85 47.7249 686.8 49.4549 686.8 51.6349V76.4349C691.25 73.5249 695.79 71.6849 700.43 70.9149C705.06 70.1449 709.31 70.465 713.17 71.865C717.03 73.275 720.48 75.4349 723.53 78.3349C726.57 81.2449 728.93 84.9449 730.61 89.4449C732.29 93.9449 733.13 98.8749 733.13 104.225V130.655C733.13 132.835 732.2 134.565 730.34 135.835C728.48 137.105 726.39 137.745 724.07 137.745C721.75 137.745 719.66 137.115 717.8 135.835C715.94 134.565 715.01 132.835 715.01 130.655V104.225C715.01 95.5049 712.33 90.505 706.97 89.235C702.7 88.145 698.34 89.5949 693.89 93.5949C689.17 97.8649 686.8 102.995 686.8 108.995V130.665C686.8 132.845 685.85 134.575 683.94 135.845C682.03 137.115 679.94 137.755 677.67 137.755C675.4 137.755 673.31 137.125 671.4 135.845C669.49 134.575 668.54 132.845 668.54 130.665V51.6349Z" fill="#040A56"/>
<path d="M738.17 102.324C739.17 95.1542 742.05 88.9742 746.82 83.7942C751.59 78.6142 757.56 74.9342 764.74 72.7542C775.28 69.3942 784.13 70.5342 791.31 76.1642C796.76 80.4342 799.53 85.7942 799.62 92.2442C799.8 99.5142 796.49 105.234 789.67 109.414C785.13 112.144 779.45 113.824 772.64 114.454C769.82 114.634 767.6 113.524 765.96 111.114C764.33 108.704 763.94 106.204 764.8 103.614C765.66 101.024 767.64 99.5942 770.73 99.3242C774.27 99.0542 777 98.3242 778.91 97.1442C781.82 95.3242 782.27 93.4642 780.27 91.5542C778.18 89.5542 775.23 88.9642 771.41 89.7842C770.95 89.8742 770.5 89.9642 770.05 90.0542C766.42 91.2342 763.33 93.0742 760.78 95.5742C758.24 98.0742 756.69 101.094 756.15 104.634C755.88 106.994 756.13 109.334 756.9 111.654C757.67 113.974 758.96 115.854 760.78 117.304C765.59 121.124 772.54 120.894 781.63 116.624C783.81 115.714 785.76 115.514 787.49 116.014C789.21 116.514 790.51 117.564 791.37 119.144C792.23 120.734 792.8 122.434 793.07 124.254C793.34 126.074 793.14 127.844 792.46 129.564C791.78 131.294 790.71 132.474 789.26 133.104C784.72 135.284 780.24 136.764 775.84 137.534C771.43 138.304 766.87 138.234 762.15 137.334C757.43 136.424 753.2 134.474 749.48 131.474C745.21 128.114 742.07 123.794 740.08 118.524C738.08 113.254 737.44 107.854 738.17 102.314V102.324Z" fill="#040A56"/>
<path d="M823.61 130.665C823.61 132.395 822.97 133.865 821.7 135.095C820.43 136.325 818.91 137.075 817.14 137.345C815.37 137.615 813.6 137.615 811.83 137.345C810.06 137.075 808.54 136.325 807.26 135.095C805.99 133.865 805.35 132.395 805.35 130.665V77.9347C805.35 75.7547 806.28 74.0247 808.14 72.7547C810 71.4847 812.07 70.8447 814.34 70.8447C816.61 70.8447 818.7 71.4547 820.61 72.6847C822.52 73.9147 823.52 75.6147 823.61 77.7947C828.88 74.4347 835.19 72.1647 842.55 70.9847C845.55 70.5347 847.84 71.7147 849.43 74.5247C851.02 77.3447 851.47 80.3347 850.79 83.5147C850.11 86.6947 848.36 88.5547 845.54 89.1047C830.91 92.1047 823.6 98.5547 823.6 108.455V130.665H823.61Z" fill="#040A56"/>
<path d="M852.91 102.324C853.91 95.1542 856.79 88.9742 861.56 83.7942C866.33 78.6142 872.3 74.9342 879.48 72.7542C890.02 69.3942 898.87 70.5342 906.05 76.1642C911.5 80.4342 914.27 85.7942 914.36 92.2442C914.54 99.5142 911.23 105.234 904.41 109.414C899.87 112.144 894.19 113.824 887.38 114.454C884.56 114.634 882.34 113.524 880.7 111.114C879.07 108.704 878.68 106.204 879.54 103.614C880.4 101.024 882.38 99.5942 885.47 99.3242C889.01 99.0542 891.74 98.3242 893.65 97.1442C896.56 95.3242 897.01 93.4642 895.01 91.5542C892.92 89.5542 889.97 88.9642 886.15 89.7842C885.69 89.8742 885.24 89.9642 884.79 90.0542C881.16 91.2342 878.07 93.0742 875.52 95.5742C872.98 98.0742 871.43 101.094 870.89 104.634C870.62 106.994 870.87 109.334 871.64 111.654C872.41 113.974 873.7 115.854 875.52 117.304C880.33 121.124 887.28 120.894 896.37 116.624C898.55 115.714 900.5 115.514 902.23 116.014C903.95 116.514 905.25 117.564 906.11 119.144C906.97 120.734 907.54 122.434 907.81 124.254C908.08 126.074 907.88 127.844 907.2 129.564C906.52 131.294 905.45 132.474 904 133.104C899.46 135.284 894.98 136.764 890.58 137.534C886.17 138.304 881.61 138.234 876.89 137.334C872.17 136.424 867.94 134.474 864.22 131.474C859.95 128.114 856.81 123.794 854.82 118.524C852.82 113.254 852.18 107.854 852.91 102.314V102.324Z" fill="#040A56"/>
<path d="M78.66 73.6652C76.96 72.5952 77.07 70.0852 78.85 69.1552C82.69 67.1752 87.27 64.3252 91.89 60.2452C97.11 55.6252 100.27 51.8852 102.44 47.4652C110.34 31.4452 98.91 12.8451 81.05 12.7951C61.79 12.7451 48.01 12.7752 28.74 12.7852C28.71 12.7852 28.69 12.7852 28.66 12.7852C27.24 12.7852 26.1 13.9651 26.1 15.3851V165.755C26.1 167.185 27.26 168.355 28.7 168.355H28.96C48.04 168.355 61.64 168.375 80.72 168.355C99.67 168.325 111.04 148.475 101.58 132.035C98.08 125.955 93.12 121.245 87.37 117.455C80.13 112.695 72.67 108.265 65.28 103.745C57.72 99.1151 50.21 94.3852 44.17 87.7752C38.64 81.7352 35.14 75.2051 33.79 68.1951C33.27 65.4951 31.81 57.5251 35.33 48.4851C38.42 40.5351 43.69 36.0251 46.04 34.0151C60.56 21.5751 82.4 23.5951 91.18 25.0451C92.93 25.3351 93.88 27.2452 93.06 28.8152C89.77 35.0752 86.48 41.3251 83.2 47.5851C82.62 48.6951 81.32 49.2152 80.12 48.8452C74.66 47.1552 68.84 48.3952 65.03 52.1252C61.57 55.5252 60.23 60.5351 61.07 64.8151C61.97 69.4051 65.05 72.5952 73.06 77.7152C82.05 83.4552 91.47 88.5451 100.38 94.3951C107.06 98.7851 113.84 103.315 119.51 108.875C139.24 128.195 131.87 158.375 113.66 171.535C104.26 178.325 93.64 181.095 82.25 181.135C53.86 181.225 30.95 181.165 2.56 181.165H2.54C1.13 181.165 0 179.985 0 178.565V2.61515C0 1.20515 1.12 0.0351414 2.53 0.0151414C2.57 0.0151414 2.61 0.0151414 2.65 0.0151414C30.59 0.0151414 53.04 -0.0248488 80.98 0.0251512C92.94 0.0451512 104.11 2.84514 113.95 10.0151C126.44 19.1151 134.52 37.0352 129.99 54.1852C127.1 65.1452 118.85 73.0352 115.93 75.6152C115.62 75.8852 115.25 76.2051 115.25 76.2051C109.25 81.3251 104.19 84.2552 100.54 85.9852C99.74 86.3652 98.8 86.3152 98.04 85.8352C91.59 81.7852 85.13 77.7252 78.68 73.6752L78.66 73.6652Z" fill="#F76A00"/>
<path d="M906.719 55.9749V55.0374H913.265V55.9749H910.52V63.7646H909.464V55.9749H906.719ZM914.896 55.0374H916.157L919.123 62.2817H919.225L922.191 55.0374H923.453V63.7646H922.464V57.134H922.379L919.651 63.7646H918.697L915.97 57.134H915.884V63.7646H914.896V55.0374Z" fill="#040A56"/>
</svg>
