<svg width="55" height="55" viewBox="0 0 55 55" fill="none" xmlns="http://www.w3.org/2000/svg">
<path fill-rule="evenodd" clip-rule="evenodd" d="M27.5002 7.52271C22.2023 7.52271 17.1213 9.62862 13.3741 13.3736C9.6291 17.1209 7.52324 22.2021 7.52324 27.4997C7.52324 32.7973 9.62915 37.8786 13.3741 41.6258C17.1214 45.3708 22.2026 47.4767 27.5002 47.4767C32.7979 47.4767 37.8792 45.3708 41.6263 41.6258C45.3714 37.8785 47.4772 32.7973 47.4772 27.4997C47.4706 22.204 45.3647 17.1253 41.6195 13.3798C37.8745 9.6348 32.7956 7.52894 27.4997 7.52214L27.5002 7.52271ZM27.5002 45.8248C22.6403 45.8248 17.9798 43.8937 14.5418 40.4583C11.1065 37.0208 9.17533 32.3598 9.17533 27.4999C9.17533 22.64 11.1065 17.9795 14.5418 14.5415C17.9794 11.1062 22.6403 9.17503 27.5002 9.17503C32.3601 9.17503 37.0207 11.1062 40.4586 14.5415C43.894 17.9791 45.8251 22.64 45.8251 27.4999C45.8185 32.3576 43.8873 37.0164 40.452 40.4515C37.0167 43.8866 32.3579 45.8182 27.5002 45.8248ZM54.0649 34.6163C53.9742 35.0808 53.6755 35.4745 53.2552 35.6869L51.3794 36.4523H51.3772C51.1715 36.5363 51.0078 36.7022 50.9237 36.9102C50.8552 37.0783 50.7866 37.2464 50.7158 37.4145V37.4123C50.6273 37.618 50.6273 37.8525 50.7158 38.0582L51.5033 39.9274H51.5011C51.7422 40.8609 51.1914 41.8165 50.2623 42.0754L48.2449 42.3298H48.2427C48.0215 42.3585 47.8202 42.4735 47.6875 42.6527C47.5791 42.7943 47.4707 42.9359 47.3623 43.0752H47.3601C47.2229 43.2522 47.161 43.4756 47.192 43.6968L47.4685 45.7142V45.7164C47.4596 46.6809 46.6788 47.4595 45.7143 47.4684L43.7013 47.1919C43.4801 47.161 43.2544 47.2229 43.0797 47.36C42.9403 47.4684 42.7987 47.579 42.6549 47.6852V47.6874C42.4758 47.8201 42.3585 48.0214 42.332 48.2449L42.0776 50.2623H42.0754C41.8166 51.1913 40.8632 51.7421 39.9297 51.501L38.0582 50.7135C37.8525 50.6251 37.618 50.6251 37.4123 50.7135C37.2442 50.7843 37.0761 50.8551 36.908 50.9237H36.9102C36.7023 51.0077 36.5363 51.1714 36.4523 51.3772L35.6869 53.2508V53.253C35.198 54.087 34.1296 54.3723 33.289 53.8967L31.6875 52.6535C31.5105 52.5164 31.2871 52.4566 31.0659 52.4876C30.8867 52.5142 30.7075 52.5363 30.5261 52.5584C30.3027 52.5849 30.1014 52.7 29.9665 52.8792L28.7388 54.494C28.0508 55.1687 26.9492 55.1687 26.2612 54.494L25.0335 52.8769V52.8747C24.8964 52.6978 24.6951 52.5805 24.4717 52.554C24.2947 52.5341 24.1155 52.5097 23.9385 52.4854C23.8987 52.4788 23.8611 52.4766 23.8213 52.4766C23.6399 52.4766 23.463 52.5385 23.3192 52.6491L21.711 53.8967C20.8726 54.3679 19.8108 54.0825 19.3197 53.2552L18.5543 51.3794V51.3772C18.4703 51.1714 18.3044 51.0077 18.0987 50.9237C17.9305 50.8551 17.7624 50.7865 17.5943 50.7158C17.3886 50.6273 17.1541 50.6273 16.9484 50.7158L15.0792 51.5032V51.501C14.6324 51.6492 14.1435 51.5829 13.7519 51.3196C13.3316 51.1117 13.0286 50.7202 12.9335 50.2601L12.6813 48.2426H12.6835C12.6547 48.0192 12.5375 47.8201 12.3583 47.6852C12.2168 47.579 12.0774 47.4706 11.9358 47.36C11.7611 47.2207 11.5354 47.1609 11.3142 47.1919L9.2968 47.4684C8.82784 47.495 8.37216 47.3047 8.06246 46.9486C7.70853 46.6411 7.51608 46.1832 7.54484 45.7142L7.82134 43.7013C7.8501 43.4778 7.79037 43.2544 7.65101 43.0774C7.54041 42.9359 7.43202 42.7943 7.32363 42.6527H7.32584C7.19091 42.4735 6.98961 42.3585 6.7684 42.3298L4.75099 42.0754C4.29088 41.9802 3.89935 41.6794 3.69141 41.2569C3.43038 40.8676 3.36403 40.3765 3.51223 39.9296L4.29529 38.0626C4.38378 37.8569 4.38378 37.6246 4.29529 37.4189C4.22451 37.2508 4.15372 37.0827 4.08515 36.9146C4.00109 36.7089 3.8374 36.543 3.63168 36.4589L1.74701 35.6847C1.32451 35.4723 1.0259 35.0764 0.935176 34.614C0.784758 34.1694 0.846693 33.6806 1.1033 33.289L2.34647 31.6875C2.48362 31.5106 2.54335 31.2849 2.51238 31.0637C2.48804 30.8845 2.46371 30.7053 2.44159 30.5262C2.41505 30.3027 2.30002 30.1014 2.12084 29.9643L0.506008 28.7388C-0.168669 28.0509 -0.168669 26.9492 0.506008 26.2613L2.12084 25.0336H2.12305C2.30002 24.8986 2.41726 24.6951 2.4438 24.4739C2.46592 24.2947 2.48804 24.1133 2.51237 23.9364V23.9342C2.54556 23.713 2.48583 23.4895 2.34868 23.3125L1.10551 21.711C0.846697 21.3195 0.782547 20.8284 0.935179 20.3838C1.02588 19.9214 1.3245 19.5277 1.74701 19.3153L3.62064 18.5499C3.82857 18.4681 3.99226 18.3022 4.07411 18.0942C4.14268 17.9239 4.21347 17.758 4.28426 17.5899C4.37274 17.3842 4.37274 17.1519 4.28426 16.9462L3.49898 15.077C3.35299 14.6302 3.41934 14.1413 3.68037 13.7497C3.88831 13.3294 4.27984 13.0264 4.73995 12.9335L6.75736 12.6791V12.6769C6.97856 12.6481 7.17986 12.5331 7.31259 12.3539C7.42098 12.2101 7.52937 12.0708 7.63777 11.9314L7.63998 11.9292C7.77713 11.7544 7.83906 11.5288 7.81031 11.3076L7.5338 9.29018C7.50504 8.82122 7.69749 8.36554 8.05142 8.05584C8.36111 7.70191 8.81682 7.51167 9.28576 7.53821L11.2987 7.81472C11.5222 7.84569 11.7456 7.78375 11.9226 7.64439C12.0641 7.53379 12.2057 7.4254 12.3473 7.31701V7.31922C12.5265 7.18429 12.6437 6.98299 12.6703 6.76178L12.9224 4.74437C13.0175 4.28426 13.3184 3.89273 13.7387 3.68479C14.1302 3.42376 14.6191 3.3574 15.0659 3.50561L16.9329 4.29088V4.28867C17.1409 4.37715 17.3731 4.37715 17.5789 4.28867C17.747 4.21788 17.9151 4.1471 18.0832 4.07853V4.08074C18.2911 3.99668 18.4548 3.83299 18.5389 3.62505L19.3043 1.74922C19.5166 1.32892 19.9104 1.03031 20.3705 0.939593C20.8151 0.786961 21.3062 0.848896 21.7 1.10992L23.3037 2.3531C23.4807 2.49025 23.7041 2.54997 23.9253 2.519C24.1023 2.49467 24.2815 2.47034 24.4606 2.44822C24.6841 2.42167 24.8854 2.30664 25.0225 2.12746L26.2613 0.506008C26.9492 -0.168669 28.0509 -0.168669 28.7388 0.506008L29.9665 2.12305L29.9687 2.12526C30.1036 2.30222 30.3049 2.41946 30.5284 2.44601C30.7075 2.46813 30.8867 2.49025 31.0637 2.5168C31.2849 2.54777 31.5083 2.48804 31.6853 2.35089L33.289 1.1033C33.6828 0.844488 34.1739 0.782547 34.6185 0.935179C35.0786 1.02588 35.4724 1.3245 35.6825 1.7448L36.4479 3.62064L36.4501 3.62285C36.5342 3.82857 36.7001 3.99226 36.9058 4.07632C37.0739 4.14489 37.242 4.21347 37.4102 4.28647C37.6159 4.37273 37.8481 4.37273 38.0539 4.28647L39.9253 3.50119C40.3699 3.35298 40.861 3.41935 41.2503 3.68258C41.6728 3.89052 41.9736 4.28206 42.0687 4.74217L42.3231 6.75957C42.3519 6.98077 42.4691 7.18207 42.6461 7.31701C42.7899 7.42319 42.9292 7.5338 43.0686 7.64219H43.0708C43.2456 7.78155 43.4712 7.84127 43.6924 7.81031L45.7098 7.5338V7.53601C46.1788 7.50726 46.6345 7.69971 46.9442 8.05364C47.2981 8.36333 47.4905 8.81903 47.464 9.28798L47.1875 11.301C47.1565 11.5244 47.2162 11.7478 47.3556 11.9248C47.4662 12.0664 47.5746 12.2079 47.683 12.3495C47.8157 12.5287 48.017 12.6437 48.2382 12.6725L50.2556 12.9246H50.2578C50.718 13.0175 51.1073 13.3206 51.3152 13.7409C51.5785 14.1324 51.6448 14.6213 51.4966 15.0682L50.7113 16.9352C50.6228 17.1409 50.6228 17.3731 50.7113 17.5789C50.7843 17.747 50.8529 17.9151 50.9215 18.0832C51.0033 18.2911 51.167 18.4571 51.375 18.5411L53.2486 19.3065L53.2508 19.3043C54.0892 19.7954 54.3767 20.8682 53.8967 21.711L52.6513 23.3125H52.6535C52.5164 23.4895 52.4566 23.7151 52.4876 23.9364C52.5142 24.1155 52.5363 24.2947 52.5584 24.4761V24.4739C52.5849 24.6973 52.7022 24.8986 52.8792 25.0358L54.494 26.2613C55.1687 26.9492 55.1687 28.0509 54.494 28.7388L52.877 29.9665C52.6978 30.1036 52.5805 30.3049 52.554 30.5284C52.5319 30.7075 52.5075 30.8867 52.4832 31.0637C52.4522 31.2849 52.512 31.5083 52.6491 31.6853L53.8945 33.289C54.1533 33.6828 54.2152 34.1717 54.0626 34.6163L54.0649 34.6163ZM25.9939 21.7156C25.9939 24.8103 23.6734 27.3277 20.8243 27.3277C17.9729 27.3277 15.6525 24.8103 15.6525 21.7156C15.6525 18.6209 17.9708 16.1036 20.8243 16.1036C23.6757 16.1036 25.9939 18.6209 25.9939 21.7156ZM17.3048 21.7156C17.3048 19.5323 18.882 17.756 20.8241 17.756C22.7641 17.756 24.3413 19.5323 24.3413 21.7156C24.3413 23.8989 22.7619 25.6752 20.8219 25.6752C18.8841 25.6752 17.307 23.8989 17.307 21.7156H17.3048ZM34.1785 28.4601C37.0299 28.4601 39.3503 30.9774 39.3503 34.0722C39.3503 37.1668 37.0298 39.6842 34.1785 39.6842C31.3271 39.6842 29.0067 37.1669 29.0067 34.0722C29.0067 30.9775 31.325 28.4601 34.1785 28.4601ZM34.1785 38.0293C32.2385 38.0293 30.6591 36.253 30.6591 34.0697C30.6591 31.8863 32.2363 30.1101 34.1785 30.1101C36.1185 30.1101 37.6979 31.8863 37.6979 34.0697C37.6979 36.253 36.1184 38.0293 34.1785 38.0293ZM35.738 16.5788L21.7399 39.2191C21.501 39.6084 20.99 39.7278 20.6029 39.4867C20.2136 39.2478 20.0941 38.7368 20.333 38.3497L34.3334 15.7095C34.4462 15.517 34.632 15.3777 34.8466 15.3246C35.0634 15.2715 35.2912 15.3069 35.4815 15.4241C35.6695 15.5414 35.8044 15.7294 35.8531 15.9484C35.9017 16.1652 35.8596 16.393 35.738 16.5788Z" fill="#E91D1D"/>
</svg>
