<svg width="256" height="256" viewBox="0 0 256 256" fill="none" xmlns="http://www.w3.org/2000/svg">
<rect width="256" height="256" rx="128" fill="white"/>
<path d="M138.142 114.929C136.818 114.102 136.905 112.16 138.293 111.446C141.275 109.917 144.84 107.712 148.429 104.558C152.487 100.992 154.936 98.0979 156.628 94.6867C162.763 82.3064 153.881 67.9345 140.008 67.8977C125.038 67.8584 114.332 67.8872 99.3617 67.8898C99.3406 67.8898 99.3221 67.8898 99.301 67.8898C98.198 67.8977 97.314 68.8004 97.314 69.8946V186.088C97.314 187.195 98.2165 188.092 99.3301 188.092H99.5306C114.358 188.092 124.924 188.105 139.75 188.087C154.472 188.069 163.309 172.726 155.957 160.02C153.237 155.321 149.387 151.684 144.914 148.755C139.29 145.074 133.493 141.657 127.751 138.159C121.874 134.577 116.039 130.925 111.342 125.821C107.046 121.153 104.323 116.107 103.273 110.691C102.869 108.605 101.734 102.449 104.471 95.4607C106.875 89.3178 110.97 85.8305 112.791 84.2797C124.075 74.6651 141.043 76.2317 147.867 77.3495C149.226 77.5726 149.967 79.0499 149.326 80.2622C146.772 85.0957 144.217 89.9292 141.66 94.7627C141.206 95.6234 140.198 96.0249 139.267 95.7389C135.021 94.4321 130.5 95.3873 127.542 98.2737C124.853 100.898 123.811 104.771 124.468 108.082C125.17 111.633 127.558 114.094 133.783 118.049C140.771 122.486 148.088 126.417 155.013 130.941C160.201 134.331 165.471 137.837 169.877 142.127C185.207 157.055 179.483 180.375 165.333 190.546C158.029 195.797 149.775 197.933 140.924 197.961C118.86 198.03 101.059 197.988 78.995 197.982H78.9765C77.8787 197.98 77 197.069 77 195.978V60.0203C77 58.9313 77.8735 58.026 78.9686 58.0129C79.0003 58.0129 79.0319 58.0129 79.0636 58.0129C100.774 58.0077 118.219 57.9814 139.929 58.0234C149.226 58.0418 157.9 60.2014 165.547 65.7407C175.253 72.7732 181.528 86.6177 178.013 99.8718C175.767 108.337 169.358 114.438 167.086 116.427C166.845 116.637 166.56 116.881 166.56 116.881C161.898 120.838 157.968 123.1 155.129 124.438C154.503 124.732 153.772 124.693 153.187 124.325C148.17 121.192 143.154 118.062 138.14 114.929H138.142Z" fill="#F76A00"/>
</svg>
